<svg width="39" height="39" viewBox="0 0 39 39" fill="none" xmlns="http://www.w3.org/2000/svg">
<g clip-path="url(#clip0_9_630)">
<path d="M19.5 11.375C15.015 11.375 11.375 15.015 11.375 19.5C11.375 23.985 15.015 27.625 19.5 27.625C23.985 27.625 27.625 23.985 27.625 19.5C27.625 15.015 23.985 11.375 19.5 11.375ZM3.25 21.125H6.5C7.39375 21.125 8.125 20.3937 8.125 19.5C8.125 18.6063 7.39375 17.875 6.5 17.875H3.25C2.35625 17.875 1.625 18.6063 1.625 19.5C1.625 20.3937 2.35625 21.125 3.25 21.125ZM32.5 21.125H35.75C36.6437 21.125 37.375 20.3937 37.375 19.5C37.375 18.6063 36.6437 17.875 35.75 17.875H32.5C31.6063 17.875 30.875 18.6063 30.875 19.5C30.875 20.3937 31.6063 21.125 32.5 21.125ZM17.875 3.25V6.5C17.875 7.39375 18.6063 8.125 19.5 8.125C20.3937 8.125 21.125 7.39375 21.125 6.5V3.25C21.125 2.35625 20.3937 1.625 19.5 1.625C18.6063 1.625 17.875 2.35625 17.875 3.25ZM17.875 32.5V35.75C17.875 36.6437 18.6063 37.375 19.5 37.375C20.3937 37.375 21.125 36.6437 21.125 35.75V32.5C21.125 31.6063 20.3937 30.875 19.5 30.875C18.6063 30.875 17.875 31.6063 17.875 32.5ZM9.73375 7.4425C9.1 6.80875 8.06 6.80875 7.4425 7.4425C6.80875 8.07625 6.80875 9.11625 7.4425 9.73375L9.165 11.4563C9.79875 12.09 10.8387 12.09 11.4563 11.4563C12.0738 10.8225 12.09 9.7825 11.4563 9.165L9.73375 7.4425ZM29.835 27.5438C29.2013 26.91 28.1613 26.91 27.5438 27.5438C26.91 28.1775 26.91 29.2175 27.5438 29.835L29.2663 31.5575C29.9 32.1912 30.94 32.1912 31.5575 31.5575C32.1912 30.9238 32.1912 29.8838 31.5575 29.2663L29.835 27.5438ZM31.5575 9.73375C32.1912 9.1 32.1912 8.06 31.5575 7.4425C30.9238 6.80875 29.8838 6.80875 29.2663 7.4425L27.5438 9.165C26.91 9.79875 26.91 10.8387 27.5438 11.4563C28.1775 12.0738 29.2175 12.09 29.835 11.4563L31.5575 9.73375ZM11.4563 29.835C12.09 29.2013 12.09 28.1613 11.4563 27.5438C10.8225 26.91 9.7825 26.91 9.165 27.5438L7.4425 29.2663C6.80875 29.9 6.80875 30.94 7.4425 31.5575C8.07625 32.175 9.11625 32.1912 9.73375 31.5575L11.4563 29.835Z" fill="white"/>
</g>
<defs>
<clipPath id="clip0_9_630">
<rect width="39" height="39" fill="white"/>
</clipPath>
</defs>
</svg>
