<svg width="279" height="67" viewBox="0 0 279 67" fill="none" xmlns="http://www.w3.org/2000/svg">
<path d="M30.1516 45.5458C28.3175 45.554 26.5077 45.1096 24.8705 44.2494C23.2335 43.389 21.8156 42.1373 20.7335 40.5967L13.1913 45.1032C13.4783 45.4474 13.8181 45.7397 14.1969 45.9683L27.6182 54.0157C28.4026 54.4325 29.2708 54.6498 30.1516 54.6498C31.0324 54.6498 31.9006 54.4325 32.685 54.0157L46.1062 45.9683C46.4851 45.7397 46.8249 45.4474 47.1119 45.1032L39.589 40.5162C38.5133 42.0744 37.0962 43.3434 35.4549 44.2181C33.8137 45.0928 31.9956 45.548 30.1516 45.5458Z" fill="#414042"/>
<path d="M18.3429 33.4014C18.3497 30.5403 19.4618 27.7819 21.4664 25.6535C23.471 23.5251 26.2277 22.1759 29.2094 21.8638V13.1913C28.757 13.281 28.3218 13.4367 27.9191 13.6529L13.9277 21.3446C13.1672 21.8299 12.5349 22.4764 12.0803 23.2338C11.6256 23.9911 11.3609 24.8384 11.3069 25.7096V41.0931C11.3131 41.537 11.3877 41.9777 11.5286 42.4007L19.3913 38.0742C18.7037 36.6034 18.3466 35.0117 18.3429 33.4014Z" fill="#414042"/>
<path d="M46.5135 21.3393L33.2585 13.6526C32.8771 13.4365 32.4648 13.281 32.0361 13.1913V21.8388C33.8368 22.0441 35.5645 22.6719 37.08 23.6718C38.5955 24.6716 39.8565 26.0155 40.7614 27.5952C41.6664 29.175 42.1899 30.9465 42.2899 32.7671C42.39 34.5877 42.0638 36.4064 41.3375 38.077L48.7864 42.4007C48.9198 41.9779 48.9906 41.5375 48.9964 41.094V25.7207C48.9482 24.8467 48.6988 23.9961 48.2679 23.2357C47.8369 22.4753 47.2364 21.8261 46.5135 21.3393Z" fill="#414042"/>
<path d="M56.1683 13.6352L34.2866 0.980209C33.0034 0.335624 31.5874 0 30.1516 0C28.7158 0 27.3 0.335624 26.0167 0.980209L4.13492 13.6352C2.93385 14.4188 1.93385 15.4742 1.21549 16.7162C0.49722 17.9581 0.080844 19.3518 0 20.7846V46.0945C0.0793365 47.5304 0.494959 48.9274 1.21323 50.1728C1.9315 51.4182 2.93234 52.477 4.13492 53.2637L26.0167 65.919C27.3 66.5635 28.7158 66.8989 30.1516 66.8989C31.5874 66.8989 33.0034 66.5635 34.2866 65.919L56.1683 53.2637C57.3709 52.477 58.3718 51.4182 59.09 50.1728C59.8083 48.9274 60.2239 47.5304 60.3032 46.0945V20.7846C60.2224 19.3518 59.806 17.9581 59.0878 16.7162C58.3694 15.4742 57.3694 14.4188 56.1683 13.6352ZM53.3589 43.1832C53.2946 44.2863 52.973 45.3589 52.4198 46.315C51.8667 47.2711 51.0974 48.0841 50.1735 48.6889L33.3171 58.4326C32.3324 58.9304 31.2448 59.1898 30.1417 59.1898C29.0387 59.1898 27.9509 58.9304 26.9664 58.4326L10.1297 48.6889C9.20586 48.0841 8.43652 47.2711 7.88342 46.315C7.33024 45.3589 7.00865 44.2863 6.94439 43.1832V23.7157C7.00865 22.6126 7.33024 21.54 7.88342 20.5839C8.43652 19.6278 9.20586 18.8147 10.1297 18.21L26.9465 8.46629C27.9311 7.96851 29.0188 7.70911 30.1219 7.70911C31.225 7.70911 32.3127 7.96851 33.2974 8.46629L50.1537 18.21C51.0812 18.8125 51.8545 19.6247 52.4112 20.5809C52.9678 21.5371 53.2924 22.6109 53.3589 23.7157V43.1832Z" fill="#414042"/>
<path d="M21.6715 33.4495C21.6715 35.0335 22.1688 36.5819 23.1006 37.899C24.0324 39.2161 25.3569 40.2426 26.9065 40.8488C28.456 41.455 30.1611 41.6136 31.8061 41.3046C33.4511 40.9956 34.9621 40.2328 36.148 39.1127C37.334 37.9926 38.1416 36.5655 38.4689 35.012C38.796 33.4583 38.6281 31.848 37.9863 30.3845C37.3444 28.9211 36.2576 27.6702 34.863 26.7902C33.4685 25.9101 31.8288 25.4404 30.1517 25.4404C27.9026 25.4404 25.7457 26.2842 24.1553 27.7862C22.5649 29.2882 21.6715 31.3254 21.6715 33.4495Z" fill="#414042"/>
<path d="M86.2812 26.1406L80.0938 45H75.1094L83.5625 22.25H86.7344L86.2812 26.1406ZM91.4219 45L85.2188 26.1406L84.7188 22.25H87.9219L96.4219 45H91.4219ZM91.1406 36.5312V40.2031H79.125V36.5312H91.1406ZM105.459 22.25V45H100.771V22.25H105.459ZM114.521 31.9688V35.625H104.177V31.9688H114.521ZM115.615 22.25V25.9219H104.177V22.25H115.615ZM131.058 22.25V45H126.386V22.25H131.058ZM138.058 22.25V25.9219H119.496V22.25H138.058ZM158.236 41.3438V45H146.126V41.3438H158.236ZM147.658 22.25V45H142.97V22.25H147.658ZM156.658 31.5156V35.0781H146.126V31.5156H156.658ZM158.22 22.25V25.9219H146.126V22.25H158.22ZM163.21 22.25H171.694C173.434 22.25 174.929 22.5104 176.179 23.0312C177.439 23.5521 178.408 24.3229 179.085 25.3438C179.762 26.3646 180.101 27.6198 180.101 29.1094C180.101 30.3281 179.892 31.375 179.476 32.25C179.069 33.1146 178.491 33.8385 177.741 34.4219C177.002 34.9948 176.132 35.4531 175.132 35.7969L173.647 36.5781H166.272L166.241 32.9219H171.726C172.549 32.9219 173.231 32.776 173.772 32.4844C174.314 32.1927 174.72 31.7865 174.991 31.2656C175.272 30.7448 175.413 30.1406 175.413 29.4531C175.413 28.724 175.278 28.0938 175.007 27.5625C174.736 27.0312 174.325 26.625 173.772 26.3438C173.22 26.0625 172.528 25.9219 171.694 25.9219H167.897V45H163.21V22.25ZM175.929 45L170.741 34.8594L175.694 34.8281L180.944 44.7812V45H175.929ZM203.981 33.1094V42.125C203.627 42.5521 203.08 43.0156 202.341 43.5156C201.601 44.0052 200.648 44.4271 199.481 44.7812C198.315 45.1354 196.903 45.3125 195.247 45.3125C193.778 45.3125 192.44 45.0729 191.231 44.5938C190.023 44.1042 188.981 43.3906 188.106 42.4531C187.242 41.5156 186.575 40.3698 186.106 39.0156C185.637 37.651 185.403 36.0938 185.403 34.3438V32.9219C185.403 31.1719 185.627 29.6146 186.075 28.25C186.533 26.8854 187.184 25.7344 188.028 24.7969C188.872 23.8594 189.877 23.1458 191.044 22.6562C192.21 22.1667 193.507 21.9219 194.934 21.9219C196.914 21.9219 198.539 22.2448 199.809 22.8906C201.08 23.526 202.049 24.4115 202.716 25.5469C203.393 26.6719 203.809 27.9635 203.966 29.4219H199.419C199.304 28.651 199.085 27.9792 198.762 27.4062C198.44 26.8333 197.976 26.3854 197.372 26.0625C196.778 25.7396 196.007 25.5781 195.059 25.5781C194.278 25.5781 193.58 25.7396 192.966 26.0625C192.361 26.375 191.851 26.8385 191.434 27.4531C191.018 28.0677 190.7 28.8281 190.481 29.7344C190.262 30.6406 190.153 31.6927 190.153 32.8906V34.3438C190.153 35.5312 190.268 36.5833 190.497 37.5C190.726 38.4062 191.065 39.1719 191.512 39.7969C191.971 40.4115 192.533 40.875 193.2 41.1875C193.867 41.5 194.643 41.6562 195.528 41.6562C196.268 41.6562 196.882 41.5938 197.372 41.4688C197.872 41.3438 198.273 41.1927 198.575 41.0156C198.887 40.8281 199.127 40.651 199.294 40.4844V36.4531H195.012V33.1094H203.981ZM224.628 41.3438V45H213.174V41.3438H224.628ZM214.69 22.25V45H210.003V22.25H214.69ZM247.211 33.0938V34.1719C247.211 35.901 246.977 37.4531 246.508 38.8281C246.039 40.2031 245.378 41.375 244.524 42.3438C243.67 43.3021 242.649 44.0365 241.461 44.5469C240.284 45.0573 238.977 45.3125 237.539 45.3125C236.112 45.3125 234.805 45.0573 233.617 44.5469C232.44 44.0365 231.42 43.3021 230.555 42.3438C229.69 41.375 229.019 40.2031 228.539 38.8281C228.071 37.4531 227.836 35.901 227.836 34.1719V33.0938C227.836 31.3542 228.071 29.8021 228.539 28.4375C229.008 27.0625 229.67 25.8906 230.524 24.9219C231.388 23.9531 232.409 23.2135 233.586 22.7031C234.774 22.1927 236.081 21.9375 237.508 21.9375C238.946 21.9375 240.253 22.1927 241.43 22.7031C242.617 23.2135 243.638 23.9531 244.492 24.9219C245.357 25.8906 246.024 27.0625 246.492 28.4375C246.972 29.8021 247.211 31.3542 247.211 33.0938ZM242.477 34.1719V33.0625C242.477 31.8542 242.367 30.7917 242.149 29.875C241.93 28.9583 241.607 28.1875 241.18 27.5625C240.753 26.9375 240.232 26.4688 239.617 26.1562C239.003 25.8333 238.3 25.6719 237.508 25.6719C236.716 25.6719 236.013 25.8333 235.399 26.1562C234.795 26.4688 234.279 26.9375 233.852 27.5625C233.435 28.1875 233.117 28.9583 232.899 29.875C232.68 30.7917 232.571 31.8542 232.571 33.0625V34.1719C232.571 35.3698 232.68 36.4323 232.899 37.3594C233.117 38.276 233.44 39.0521 233.867 39.6875C234.295 40.3125 234.815 40.7865 235.43 41.1094C236.045 41.4323 236.748 41.5938 237.539 41.5938C238.331 41.5938 239.034 41.4323 239.649 41.1094C240.263 40.7865 240.779 40.3125 241.196 39.6875C241.612 39.0521 241.93 38.276 242.149 37.3594C242.367 36.4323 242.477 35.3698 242.477 34.1719ZM258.311 41.3906L262.842 22.25H265.373L265.951 25.4375L261.123 45H258.404L258.311 41.3906ZM255.982 22.25L259.732 41.3906L259.42 45H256.389L251.342 22.25H255.982ZM269.936 41.3125L273.639 22.25H278.279L273.248 45H270.217L269.936 41.3125ZM266.795 22.25L271.357 41.4688L271.232 45H268.514L263.654 25.4219L264.279 22.25H266.795Z" fill="white"/>
</svg>
